<?xml version="1.0" encoding="UTF-8"?>
<svg xmlns="http://www.w3.org/2000/svg" xmlns:xlink="http://www.w3.org/1999/xlink" width="222px" height="85px" viewBox="0 0 222 85" version="1.1">
<g id="surface1">
<path style=" stroke:none;fill-rule:nonzero;fill:rgb(78.039216%,60.784314%,23.137255%);fill-opacity:1;" d="M 209.707031 61.066406 C 205.933594 60.101562 202.679688 59.289062 202.679688 56.175781 C 202.679688 53.730469 204.527344 52.171875 207.488281 52.171875 C 210.226562 52.027344 212.742188 53.878906 213.257812 56.621094 L 220.660156 53.0625 C 218.660156 48.171875 213.851562 45.207031 207.710938 45.207031 C 199.71875 45.207031 194.167969 50.097656 194.167969 57.0625 C 194.167969 65.585938 200.308594 67.214844 205.785156 68.625 C 209.632812 69.585938 212.890625 70.476562 212.890625 73.664062 C 212.890625 76.332031 210.742188 78.035156 207.488281 78.035156 C 204.230469 78.035156 201.492188 76.257812 200.753906 73.589844 L 193.355469 77.144531 C 195.425781 82.035156 200.679688 85 207.191406 85 C 215.847656 85 221.398438 80.183594 221.398438 72.625 C 221.398438 64.03125 214.886719 62.398438 209.707031 61.066406 Z M 221.992188 10.75 L 221.992188 14.679688 L 215.699219 14.679688 L 215.699219 18.382812 L 221.175781 18.382812 L 220.140625 22.164062 L 215.699219 22.164062 L 215.699219 28.015625 L 211.410156 28.015625 L 211.410156 10.75 Z M 200.605469 14.753906 C 203.269531 14.753906 205.414062 16.902344 205.414062 19.570312 C 205.414062 22.238281 203.269531 24.386719 200.605469 24.386719 C 197.941406 24.386719 195.796875 22.238281 195.796875 19.570312 C 195.796875 16.902344 197.941406 14.753906 200.605469 14.753906 Z M 200.605469 28.535156 C 205.5625 28.535156 209.558594 24.460938 209.558594 19.496094 C 209.558594 14.53125 205.488281 10.53125 200.53125 10.53125 C 195.574219 10.53125 191.578125 14.605469 191.578125 19.496094 C 191.578125 24.535156 195.648438 28.609375 200.605469 28.535156 Z M 121.730469 83.886719 L 129.71875 83.886719 L 129.71875 58.621094 L 147.847656 83.886719 L 156.210938 83.886719 L 156.210938 45.429688 L 148.144531 45.429688 L 148.144531 71.070312 L 130.238281 45.429688 L 119.878906 45.429688 L 121.730469 49.210938 Z M 183.292969 69.214844 C 182.183594 71.957031 179.960938 74.105469 177.296875 75.292969 C 175.890625 75.886719 174.414062 76.183594 172.859375 76.183594 L 168.269531 76.183594 L 168.269531 53.210938 L 172.859375 53.210938 C 174.414062 53.210938 175.890625 53.507812 177.296875 54.101562 C 180.035156 55.210938 182.183594 57.433594 183.292969 60.175781 C 184.476562 63.140625 184.476562 66.328125 183.292969 69.214844 Z M 180.628906 46.988281 C 178.1875 46.023438 175.597656 45.503906 173.007812 45.355469 L 159.910156 45.355469 L 159.910156 83.8125 L 173.007812 83.8125 C 178.1875 83.8125 183.144531 81.886719 186.917969 78.332031 C 188.691406 76.625 190.171875 74.550781 191.136719 72.253906 C 194.316406 64.992188 192.613281 56.546875 186.917969 51.0625 C 185.066406 49.359375 182.996094 47.949219 180.628906 46.988281 Z M 51.214844 83.886719 L 28.347656 83.886719 L 28.347656 45.429688 L 51.214844 45.429688 L 51.214844 52.914062 L 36.710938 52.914062 L 36.710938 60.695312 L 49.957031 60.695312 L 47.957031 67.957031 L 36.710938 67.957031 L 36.710938 76.40625 L 51.214844 76.476562 Z M 103.453125 52.914062 L 117.957031 52.914062 L 117.957031 45.429688 L 95.164062 45.429688 L 95.164062 83.886719 L 117.957031 83.886719 L 117.957031 76.476562 L 103.453125 76.40625 L 103.453125 67.957031 L 114.699219 67.957031 L 116.699219 60.695312 L 103.453125 60.695312 Z M 132.457031 30.386719 C 131.71875 28.238281 131.347656 26.015625 131.421875 23.792969 L 131.570312 0.0820312 L 139.859375 0.0820312 L 139.785156 23.421875 C 139.785156 26.015625 140.375 28.089844 141.558594 29.574219 C 144.371094 32.539062 149.105469 32.613281 151.992188 29.722656 L 152.140625 29.574219 C 153.398438 28.089844 153.992188 26.015625 153.992188 23.421875 L 154.0625 0.0078125 L 162.5 0.0078125 L 162.351562 23.941406 C 162.351562 26.164062 162.054688 28.386719 161.316406 30.535156 C 160.648438 32.390625 159.539062 34.09375 158.207031 35.574219 C 156.800781 36.984375 155.175781 38.09375 153.324219 38.761719 C 149.105469 40.242188 144.519531 40.242188 140.300781 38.6875 C 138.453125 37.945312 136.824219 36.910156 135.492188 35.425781 C 134.160156 34.019531 133.125 32.316406 132.457031 30.386719 Z M 90.875 27.425781 C 89.835938 24.980469 89.320312 22.3125 89.320312 19.71875 C 89.320312 17.050781 89.910156 14.457031 90.949219 12.011719 C 91.984375 9.640625 93.464844 7.492188 95.3125 5.714844 C 97.164062 3.859375 99.382812 2.453125 101.75 1.488281 C 104.191406 0.453125 106.855469 -0.0664062 109.59375 0.0078125 C 113.21875 -0.0664062 116.84375 0.898438 120.027344 2.675781 C 122.988281 4.378906 125.429688 6.898438 126.984375 10.011719 L 119.433594 13.566406 C 118.546875 11.789062 117.140625 10.308594 115.441406 9.269531 C 113.664062 8.234375 111.59375 7.789062 109.519531 7.789062 C 107.964844 7.789062 106.339844 8.085938 104.933594 8.675781 C 103.527344 9.269531 102.269531 10.160156 101.234375 11.269531 C 100.121094 12.382812 99.308594 13.714844 98.71875 15.125 C 97.460938 18.160156 97.460938 21.496094 98.644531 24.535156 C 99.753906 27.425781 102.046875 29.796875 104.859375 31.054688 C 106.339844 31.722656 107.890625 32.09375 109.519531 32.019531 C 111.886719 32.09375 114.253906 31.351562 116.179688 30.019531 C 117.957031 28.757812 119.214844 26.832031 119.730469 24.683594 L 106.042969 24.683594 L 109.445312 17.71875 L 128.535156 17.71875 C 128.609375 19.199219 128.535156 22.386719 128.460938 23.050781 C 128.242188 24.832031 127.796875 26.609375 127.128906 28.3125 C 125.28125 32.90625 121.65625 36.464844 117.066406 38.316406 C 109.519531 41.355469 100.9375 39.578125 95.164062 33.796875 C 93.316406 31.945312 91.910156 29.796875 90.875 27.425781 Z M 1.933594 34.6875 L 1.933594 4.082031 L 0.0078125 0.0820312 L 10.222656 0.0820312 L 10.222656 31.128906 L 25.539062 31.128906 L 23.390625 38.6875 L 0.0078125 38.6875 Z M 1.933594 79.886719 L 1.933594 49.285156 L 0.0078125 45.28125 L 10.222656 45.28125 L 10.222656 76.332031 L 25.539062 76.332031 L 23.390625 83.886719 L 0.0078125 83.886719 Z M 51.214844 38.6875 L 28.347656 38.6875 L 28.347656 0.230469 L 51.214844 0.230469 L 51.214844 7.714844 L 36.710938 7.714844 L 36.710938 15.496094 L 49.957031 15.496094 L 47.957031 22.757812 L 36.710938 22.757812 L 36.710938 31.128906 L 51.214844 31.203125 Z M 188.988281 38.6875 L 166.199219 38.6875 L 166.199219 0.230469 L 189.0625 0.230469 L 189.0625 7.714844 L 174.558594 7.714844 L 174.558594 15.496094 L 187.804688 15.496094 L 185.808594 22.757812 L 174.558594 22.757812 L 174.558594 31.128906 L 189.0625 31.203125 L 189.0625 38.6875 Z M 73.117188 10.898438 L 77.925781 23.867188 L 68.082031 23.867188 Z M 62.386719 38.6875 L 65.273438 31.203125 L 80.664062 31.203125 L 83.621094 38.6875 L 92.28125 38.6875 L 76.816406 0.0820312 L 64.976562 0.0820312 L 67.492188 5.121094 L 53.878906 38.6875 Z M 68.527344 84.480469 C 69.933594 84.777344 71.339844 84.925781 72.820312 84.925781 C 75.410156 85 78 84.480469 80.441406 83.519531 C 85.027344 81.664062 88.652344 78.109375 90.503906 73.515625 C 91.167969 71.808594 91.613281 70.03125 91.835938 68.253906 C 91.984375 66.476562 91.984375 64.695312 91.910156 62.84375 L 72.820312 62.84375 L 72.820312 62.917969 L 69.414062 69.882812 L 83.03125 69.882812 C 82.511719 72.03125 81.253906 73.960938 79.480469 75.21875 C 77.554688 76.625 75.261719 77.292969 72.894531 77.21875 C 72.152344 77.21875 71.488281 77.144531 70.746094 76.996094 L 69.046875 76.550781 C 68.75 76.476562 68.527344 76.332031 68.230469 76.257812 C 65.421875 74.996094 63.125 72.699219 62.015625 69.734375 C 60.832031 66.699219 60.832031 63.289062 62.089844 60.25 C 62.683594 58.84375 63.570312 57.507812 64.605469 56.398438 C 65.640625 55.285156 66.972656 54.472656 68.378906 53.878906 C 69.859375 53.285156 71.414062 52.988281 72.96875 52.988281 C 75.039062 52.914062 77.109375 53.433594 78.886719 54.472656 C 80.589844 55.507812 81.996094 56.992188 82.882812 58.769531 L 90.429688 55.210938 C 88.875 52.101562 86.507812 49.582031 83.472656 47.875 C 80.292969 46.097656 76.742188 45.207031 73.042969 45.207031 C 67.714844 45.132812 62.609375 47.210938 58.761719 50.988281 C 56.910156 52.765625 55.429688 54.914062 54.394531 57.285156 C 52.25 62.175781 52.25 67.808594 54.320312 72.699219 C 55.355469 75.070312 56.761719 77.21875 58.539062 79.070312 C 60.167969 80.703125 62.089844 82.035156 64.160156 83.074219 C 65.621094 83.734375 67.070312 84.257812 68.527344 84.480469 Z M 68.527344 84.480469 "/>
</g>
</svg>
